<svg width="48" height="48" viewBox="0 0 48 48" fill="none" xmlns="http://www.w3.org/2000/svg">
<rect width="48" height="48" fill=""/>
<path d="M6 42.0001C12 42.0001 20 40.0001 20 26.0001V10.0001C20 7.50007 18.488 5.96607 16 6.00007H8C5.5 6.00007 4 7.50007 4 9.94407V22.0001C4 24.5001 5.5 26.0001 8 26.0001C10 26.0001 10 26.0001 10 28.0001V30.0001C10 32.0001 8 34.0001 6 34.0001C4 34.0001 4 34.0161 4 36.0621V40.0001C4 42.0001 4 42.0001 6 42.0001Z" fill="#7224B2"/>
<path d="M30 42.0001C36 42.0001 44 40.0001 44 26.0001V10.0001C44 7.50007 42.486 5.96607 40 6.00007H32C29.5 6.00007 28 7.50007 28 9.94407V22.0001C28 24.5001 29.5 26.0001 32 26.0001H33.5C33.5 30.5001 34 34.0001 28 34.0001V40.0001C28 42.0001 28 42.0001 30 42.0001Z" fill="#7224B2"/>
</svg>
